<?xml version="1.0" encoding="UTF-8"?>
<svg id="Layer_1" data-name="Layer 1" xmlns="http://www.w3.org/2000/svg" viewBox="0 0 668.26 496.97">
  <defs>
    <style>
      .cls-1 {
        fill: #6fd460;
      }

      .cls-2 {
        fill: #17412c;
      }

      .cls-3 {
        fill: #161d1a;
        font-family: Raleway-Bold, Raleway;
        font-size: 53.77px;
        font-weight: 700;
      }

      .cls-4 {
        letter-spacing: -.07em;
      }

      .cls-5 {
        letter-spacing: .08em;
      }

      .cls-6 {
        letter-spacing: .07em;
      }

      .cls-7 {
        letter-spacing: .06em;
      }

      .cls-8 {
        letter-spacing: .05em;
      }
    </style>
  </defs>
  <text class="cls-3" transform="translate(126.57 359.9)"><tspan x="0" y="0">DIGI</tspan><tspan class="cls-4" x="108.25" y="0">T</tspan><tspan x="137.77" y="0">ALIZ</tspan><tspan class="cls-4" x="254.41" y="0">A</tspan><tspan x="286.78" y="0">TION</tspan></text>
  <text class="cls-3" transform="translate(126.08 422.31)"><tspan class="cls-6" x="0" y="0">SUPPO</tspan><tspan class="cls-7" x="201.12" y="0">R</tspan><tspan class="cls-8" x="240.32" y="0">T</tspan><tspan class="cls-5" x="276.13" y="0" xml:space="preserve"> HUB</tspan></text>
  <g>
    <path d="M128.5,299.43h97.77c2.8,0,5.54-.08,8.26-.21h-106.03v.21Z"/>
    <path class="cls-1" d="M269.62,232.98c-1.29,1.11-2.62,2.19-3.97,3.23-.36.29-.64.56-.97.79-8.15,6-18.22,10.28-29.88,12.79-.24.05-.48.14-.72.19l-3.84.8,8.05-29.2c2.68,1.76,7.29,3.84,13.85,6.18,5.15,1.88,10.99,3.61,17.48,5.22Z"/>
    <path class="cls-2" d="M496.1,29.94v131.2h-99.15c9.16,5.03,21.71,15.62,29.85,37.22h69.3v100.86h43.67V29.94h-43.67Z"/>
    <path class="cls-1" d="M275.96,92.05c.54-1.32,1.16-2.6,1.82-3.84,2.02-3.51,4.75-6.64,8.21-9.24,7.68-5.78,19.23-8.71,34.25-8.79h.45c1.77,0,3.59.08,5.41.17,1.94.12,3.92.29,5.9.54,4.58.5,9.12,1.32,13.58,2.48,7.47,1.94,14.53,4.29,21.01,7.02.45.21.95.37,1.4.58.95.41,1.82.83,2.72,1.24,1.4.62,2.81,1.28,4.13,1.94,4,1.98,7.68,4,10.81,6.07,2.44,1.57,4.5,2.97,6.19,4.25l18.9-34.71c-5.24-3.38-10.9-6.56-16.92-9.53-2.89-1.44-5.86-2.81-8.91-4.13-3.26-1.44-6.6-2.81-10.07-4.13-.62-.25-1.2-.5-1.77-.74-15.39-5.74-32.52-8.63-50.89-8.63-12.63,0-24.6,1.69-35.7,4.95-.41.12-.91.21-1.36.37-1.57.5-3.1,1.07-4.66,1.65-1.94.7-3.88,1.44-5.74,2.27-7.14,3.1-13.7,6.89-19.52,11.47-6.81,5.36-12.42,11.97-16.84,19.56-.74,1.24-1.44,2.52-2.1,3.84-.29.58-.66,1.07-.91,1.65-.37.74-.62,1.57-.95,2.35-4.09,9.45-6.23,20.26-6.23,32.27,0,9.78,1.49,18.2,4.42,25.09,2.89,6.85,7.3,13,13.16,18.24,5.94,5.36,13.54,10.11,22.57,14.07,9.16,4.04,20.14,7.84,32.56,11.27.83-5.53,1.24-11.27,1.24-17.13,0-10.52-1.32-20.35-3.76-29.47-2.52-1.07-4.87-2.15-6.97-3.3-5.57-3.05-9.9-6.73-12.92-10.85-3.14-4.37-4.75-9.86-4.75-16.26,0-2.97.33-5.74.91-8.34.37-1.49.83-2.89,1.32-4.25Z"/>
    <path class="cls-1" d="M421.51,222.5c0,7.96-.91,15.27-2.64,21.91-1.24,4.7-2.89,9.12-4.99,13.08-5.12,9.62-12.05,17.46-20.68,23.36-5.53,3.8-11.72,6.89-18.36,9.41-1.36.54-2.72,1.07-4.13,1.53-1.36.45-2.76.83-4.13,1.2-1.28.37-2.56.78-3.88,1.11-11.64,2.81-23.98,4.21-36.73,4.21-14.44,0-28.93-1.61-43.21-4.79,16.67-6.64,31.16-16.1,43.09-28.15,1.86-1.9,3.67-3.88,5.41-5.9,18.28-.7,29.14-5.45,35.33-11.84,1.69-1.77,3.05-3.63,4.13-5.57,2.48-4.58,3.34-9.57,3.34-14.28,0-5.08-1.11-9.66-3.34-13.7-.74-1.28-1.57-2.52-2.48-3.67-.5-.62-6.23-6.36-6.77-6.93,1.24-7.68,2.19-16.67,2.19-26.74v-.45c-.04-5.41-.29-10.44-.7-15.15-.21-2.19-.41-4.33-.7-6.36,1.4.5,7.1,1.82,8.46,2.31.95.37,1.94.7,2.89,1.03.41.17.83.37,1.24.54,2.02.78,3.92,1.61,5.82,2.48,7.26,3.3,13.7,7.14,19.07,11.51,6.97,5.65,12.38,12.5,16.14,20.35.78,1.65,1.44,3.51,2.06,5.36.33,1.03.66,2.02.95,3.1,1.73,6.15,2.64,13.16,2.64,21.05Z"/>
    <g>
      <path class="cls-2" d="M226.27,76.2c.33,0,.66.04.99.04.21-.45.41-.95.62-1.44.45-.91.99-1.69,1.44-2.6,5.16-9.99,12.09-18.53,20.76-25.38,3.96-3.14,8.3-5.9,12.83-8.38,1.82-.99,3.67-1.94,5.57-2.85-12.75-3.47-26.78-5.24-42.22-5.24h-34.91v45.85h34.91Z"/>
      <path class="cls-2" d="M358.87,161.13c-.08-2.77-.16-5.53-.37-8.21-.08-1.53-.21-3.01-.33-4.5-.12-1.49-.29-2.97-.45-4.42-1.32-10.98-3.67-21.5-7.14-31.61-4.13-12.17-9.86-23.19-17.09-33.02-1.9-.29-38.06-1.66-50.76,18.69.87.95,1.82,1.77,2.68,2.77,6.36,7.3,11.27,16.05,14.77,26,.25.7.54,1.36.74,2.06.33.99.58,2.1.91,3.14.45,1.61.95,3.22,1.36,4.91,2.02,8.58,3.05,17.79,3.05,27.57,0,6.31-.45,12.38-1.32,18.28-.21,1.36-.54,2.68-.78,4.04-.25,1.36-.5,2.77-.78,4.09-.7,3.01-1.49,5.94-2.43,8.83-3.55,10.85-8.67,20.26-15.35,28.23-3.63,4.33-7.84,8.13-12.46,11.43-1.32.95-2.68,1.86-4.09,2.72-1.4.91-2.89,1.69-4.42,2.52-1.32.7-2.64,1.44-4.04,2.1-9.99,4.54-21.42,6.81-34.3,6.81h-45.48V86.18h-52.29v213.04h106.02c9.12-.41,17.83-1.53,26.08-3.3,2.64-.58,5.2-1.2,7.76-1.9,2.43-.7,4.83-1.44,7.22-2.27,1.82-.62,3.67-1.28,5.45-1.98,16.3-6.44,30.25-15.56,41.89-27.28.95-.95,1.82-1.94,2.72-2.93,1.24-1.36,2.48-2.72,3.63-4.17,1.16-1.36,2.27-2.76,3.38-4.21,6.97-9.24,12.63-19.6,16.96-31.16,1.4-3.76,2.64-7.63,3.71-11.56.37-1.4.74-2.76,1.07-4.17.33-1.4.66-2.77.99-4.17,1.98-9.29,3.05-19.11,3.38-29.47.04-2.02.12-4.04.12-6.15,0-1.11-.04-2.27-.04-3.38Z"/>
    </g>
    <rect class="cls-1" x="131.09" y="32.58" width="44.65" height="38.35"/>
  </g>
</svg>