<?xml version="1.0" encoding="UTF-8"?>
<svg id="Layer_1" data-name="Layer 1" xmlns="http://www.w3.org/2000/svg" viewBox="0 0 319.91 299.43">
  <defs>
    <style>
      .cls-1 {
        fill: #6fd460;
      }

      .cls-2 {
        fill: #17412c;
      }
    </style>
  </defs>
  <path d="M20.57,244.29h66.27c1.9,0,3.76-.05,5.6-.14H20.57v.14Z"/>
  <path class="cls-1" d="M116.22,199.25c-.87.75-1.78,1.48-2.69,2.19-.25.19-.44.38-.66.54-5.53,4.06-12.35,6.97-20.26,8.67-.16.03-.32.1-.49.13l-2.6.54,5.46-19.79c1.82,1.19,4.94,2.6,9.39,4.19,3.49,1.27,7.45,2.45,11.85,3.54Z"/>
  <path class="cls-2" d="M269.74,61.62v88.94h-67.21c6.21,3.41,14.72,10.59,20.24,25.23h46.97v68.37h29.6V61.62h-29.6Z"/>
  <path class="cls-1" d="M120.52,103.72c.36-.9.78-1.76,1.23-2.6,1.37-2.38,3.22-4.5,5.57-6.27,5.2-3.92,13.04-5.9,23.22-5.96h.31c1.2,0,2.43.06,3.66.11,1.31.08,2.66.2,4,.36,3.11.34,6.18.9,9.2,1.68,5.06,1.31,9.85,2.91,14.24,4.76.31.14.64.25.95.39.64.28,1.23.56,1.85.84.95.42,1.9.87,2.8,1.31,2.71,1.34,5.2,2.71,7.33,4.11,1.65,1.06,3.05,2.01,4.2,2.88l12.81-23.53c-3.55-2.29-7.39-4.45-11.47-6.46-1.96-.98-3.97-1.9-6.04-2.8-2.21-.98-4.48-1.9-6.83-2.8-.42-.17-.81-.34-1.2-.5-10.43-3.89-22.04-5.85-34.49-5.85-8.56,0-16.67,1.15-24.2,3.36-.28.08-.62.14-.92.25-1.06.34-2.1.73-3.16,1.12-1.31.48-2.63.98-3.89,1.54-4.84,2.1-9.29,4.67-13.23,7.78-4.62,3.64-8.42,8.11-11.41,13.26-.5.84-.98,1.71-1.43,2.6-.2.39-.45.73-.62,1.12-.25.5-.42,1.06-.64,1.59-2.77,6.41-4.22,13.74-4.22,21.88,0,6.63,1.01,12.34,2.99,17.01,1.96,4.64,4.95,8.81,8.92,12.36,4.03,3.64,9.18,6.85,15.3,9.54,6.21,2.74,13.65,5.32,22.07,7.64.56-3.75.84-7.64.84-11.61,0-7.13-.9-13.79-2.55-19.97-1.71-.73-3.3-1.45-4.73-2.24-3.78-2.07-6.71-4.56-8.76-7.36-2.13-2.97-3.22-6.69-3.22-11.02,0-2.01.22-3.89.62-5.65.25-1.01.56-1.96.9-2.88Z"/>
  <path class="cls-1" d="M219.19,192.15c0,5.4-.62,10.35-1.79,14.85-.84,3.19-1.96,6.18-3.38,8.87-3.47,6.52-8.17,11.83-14.02,15.83-3.75,2.57-7.94,4.67-12.45,6.38-.92.36-1.85.73-2.8,1.04-.92.31-1.87.56-2.8.81-.87.25-1.73.53-2.63.76-7.89,1.9-16.25,2.85-24.9,2.85-9.79,0-19.61-1.09-29.29-3.24,11.3-4.5,21.12-10.91,29.21-19.08,1.26-1.29,2.49-2.63,3.66-4,12.39-.48,19.75-3.69,23.95-8.03,1.15-1.2,2.07-2.46,2.8-3.78,1.68-3.11,2.27-6.49,2.27-9.68,0-3.44-.76-6.55-2.27-9.29-.5-.87-1.06-1.71-1.68-2.49-.34-.42-4.22-4.31-4.59-4.7.84-5.2,1.48-11.3,1.48-18.13v-.31c-.03-3.66-.2-7.08-.48-10.27-.14-1.48-.28-2.94-.48-4.31.95.34,4.81,1.23,5.73,1.57.64.25,1.31.48,1.96.7.28.11.56.25.84.36,1.37.53,2.66,1.09,3.94,1.68,4.92,2.24,9.29,4.84,12.92,7.8,4.73,3.83,8.39,8.48,10.94,13.79.53,1.12.98,2.38,1.4,3.64.22.7.45,1.37.64,2.1,1.18,4.17,1.79,8.92,1.79,14.27Z"/>
  <g>
    <path class="cls-2" d="M86.84,92.98c.22,0,.45.03.67.03.14-.31.28-.64.42-.98.31-.62.67-1.15.98-1.76,3.5-6.77,8.2-12.56,14.07-17.2,2.69-2.13,5.62-4,8.7-5.68,1.23-.67,2.49-1.31,3.78-1.93-8.64-2.35-18.16-3.55-28.62-3.55h-23.67v31.08h23.67Z"/>
    <path class="cls-2" d="M176.72,150.55c-.06-1.87-.11-3.75-.25-5.57-.06-1.04-.14-2.04-.22-3.05-.08-1.01-.2-2.01-.31-2.99-.9-7.44-2.49-14.57-4.84-21.43-2.8-8.25-6.69-15.72-11.58-22.38-1.29-.2-25.8-1.12-34.41,12.67.59.64,1.23,1.2,1.82,1.87,4.31,4.95,7.64,10.88,10.01,17.62.17.48.36.92.5,1.4.22.67.39,1.43.62,2.13.31,1.09.64,2.18.92,3.33,1.37,5.82,2.07,12.06,2.07,18.69,0,4.28-.31,8.39-.9,12.39-.14.92-.36,1.82-.53,2.74s-.34,1.87-.53,2.77c-.48,2.04-1.01,4.03-1.65,5.99-2.41,7.36-5.87,13.74-10.41,19.13-2.46,2.94-5.32,5.51-8.45,7.75-.9.64-1.82,1.26-2.77,1.85-.95.62-1.96,1.15-2.99,1.71-.9.48-1.79.98-2.74,1.43-6.77,3.08-14.52,4.62-23.25,4.62h-30.83v-113.47H20.57v144.41h71.87c6.18-.28,12.09-1.04,17.68-2.24,1.79-.39,3.52-.81,5.26-1.29,1.65-.48,3.27-.98,4.9-1.54,1.23-.42,2.49-.87,3.69-1.34,11.05-4.36,20.51-10.55,28.39-18.49.64-.64,1.23-1.31,1.85-1.99.84-.92,1.68-1.85,2.46-2.83.78-.92,1.54-1.87,2.29-2.85,4.73-6.27,8.56-13.29,11.5-21.12.95-2.55,1.79-5.18,2.52-7.83.25-.95.5-1.87.73-2.83.22-.95.45-1.87.67-2.83,1.34-6.29,2.07-12.95,2.29-19.97.03-1.37.08-2.74.08-4.17,0-.76-.03-1.54-.03-2.29Z"/>
  </g>
  <rect class="cls-1" x="22.32" y="63.41" width="30.26" height="26"/>
</svg>