<?xml version="1.0" encoding="UTF-8"?>
<svg id="Layer_1" data-name="Layer 1" xmlns="http://www.w3.org/2000/svg" viewBox="0 0 668.26 226.87">
  <defs>
    <style>
      .cls-1 {
        fill: #6fd460;
      }

      .cls-2 {
        fill: #17412c;
      }

      .cls-3 {
        fill: #161d1a;
      }
    </style>
  </defs>
  <g>
    <path class="cls-3" d="M233.66,104.56v-37.33h13.25c3.01,0,5.65.49,7.91,1.47,2.26.98,4.15,2.31,5.68,4,1.52,1.68,2.67,3.65,3.44,5.92.77,2.26,1.16,4.67,1.16,7.23,0,2.84-.43,5.41-1.29,7.7-.86,2.3-2.08,4.26-3.65,5.89-1.58,1.63-3.49,2.89-5.73,3.79-2.24.89-4.75,1.34-7.52,1.34h-13.25ZM259.11,85.84c0-1.96-.27-3.77-.82-5.42-.54-1.65-1.34-3.06-2.39-4.23-1.05-1.17-2.33-2.09-3.84-2.76-1.51-.67-3.23-1-5.15-1h-7.36v26.92h7.36c1.96,0,3.71-.34,5.23-1.03,1.52-.68,2.8-1.63,3.84-2.84s1.81-2.64,2.34-4.29c.53-1.65.79-3.44.79-5.36Z"/>
    <path class="cls-3" d="M271.31,104.56v-37.33h5.89v37.33h-5.89Z"/>
    <path class="cls-3" d="M311.74,99.93c-3.16,3.26-6.78,4.89-10.88,4.89-2.49,0-4.8-.52-6.94-1.55-2.14-1.03-4-2.43-5.57-4.18-1.58-1.75-2.81-3.79-3.71-6.1-.89-2.31-1.34-4.73-1.34-7.26s.45-4.92,1.34-7.2c.89-2.28,2.13-4.28,3.71-5.99,1.58-1.72,3.45-3.08,5.63-4.08,2.17-1,4.54-1.5,7.1-1.5,3.58,0,6.57.75,8.99,2.23,2.42,1.49,4.24,3.46,5.47,5.92l-4.52,3.26c-1.02-2.03-2.42-3.56-4.21-4.57-1.79-1.02-3.75-1.52-5.89-1.52-1.75,0-3.35.38-4.79,1.13-1.44.75-2.66,1.75-3.68,3-1.02,1.24-1.8,2.69-2.34,4.34-.54,1.65-.81,3.37-.81,5.15,0,1.89.31,3.66.92,5.31.61,1.65,1.45,3.09,2.52,4.31,1.07,1.23,2.34,2.2,3.81,2.92,1.47.72,3.07,1.08,4.79,1.08,1.89,0,3.71-.44,5.44-1.31,1.74-.88,3.39-2.26,4.97-4.15v-4h-7.83v-4.36h12.78v18.88h-4.94v-4.63Z"/>
    <path class="cls-3" d="M323.42,104.56v-37.33h5.89v37.33h-5.89Z"/>
    <path class="cls-3" d="M365.11,72.43h-12.41v32.13h-5.94v-32.13h-12.46v-5.21h30.81v5.21Z"/>
    <path class="cls-3" d="M377.42,67.23h5.15l14.72,37.33h-6.21l-3.94-10.15h-14.41l-3.89,10.15h-6.26l14.83-37.33ZM385.99,90.05l-5.99-16.04-6.2,16.04h12.2Z"/>
    <path class="cls-3" d="M401.92,104.56v-37.33h5.89v32.13h20.03v5.21h-25.92Z"/>
    <path class="cls-3" d="M432.63,104.56v-37.33h5.89v37.33h-5.89Z"/>
    <path class="cls-3" d="M444.35,100.04l22.66-27.61h-22.14v-5.21h29.02v4.52l-22.14,27.61h22.19v5.21h-29.6v-4.52Z"/>
    <path class="cls-3" d="M490.99,67.23h5.15l14.72,37.33h-6.21l-3.94-10.15h-14.41l-3.89,10.15h-6.26l14.83-37.33ZM499.56,90.05l-5.99-16.04-6.2,16.04h12.2Z"/>
    <path class="cls-3" d="M539.21,72.43h-12.41v32.13h-5.94v-32.13h-12.46v-5.21h30.81v5.21Z"/>
    <path class="cls-3" d="M544.21,104.56v-37.33h5.89v37.33h-5.89Z"/>
    <path class="cls-3" d="M574.02,104.82c-2.66,0-5.09-.53-7.28-1.6-2.19-1.07-4.08-2.49-5.65-4.26-1.58-1.77-2.8-3.79-3.65-6.07-.86-2.28-1.29-4.61-1.29-6.99s.46-4.87,1.37-7.15c.91-2.28,2.16-4.29,3.76-6.05,1.59-1.75,3.49-3.15,5.68-4.18,2.19-1.03,4.58-1.55,7.18-1.55s5.09.55,7.28,1.66c2.19,1.1,4.07,2.55,5.63,4.34,1.56,1.79,2.77,3.81,3.63,6.07.86,2.26,1.29,4.57,1.29,6.91,0,2.49-.45,4.87-1.34,7.15-.89,2.28-2.15,4.29-3.76,6.02-1.61,1.74-3.51,3.12-5.71,4.15-2.19,1.03-4.57,1.55-7.12,1.55ZM562.13,85.9c0,1.75.28,3.45.84,5.1.56,1.65,1.36,3.1,2.39,4.36,1.03,1.26,2.29,2.27,3.76,3.02,1.47.75,3.12,1.13,4.94,1.13s3.57-.39,5.02-1.18,2.69-1.83,3.71-3.13,1.79-2.75,2.31-4.36c.53-1.61.79-3.26.79-4.94,0-1.79-.28-3.5-.84-5.13-.56-1.63-1.36-3.07-2.39-4.31-1.03-1.24-2.28-2.24-3.73-3-1.46-.75-3.08-1.13-4.86-1.13-1.89,0-3.58.39-5.05,1.18-1.47.79-2.72,1.81-3.73,3.08-1.02,1.26-1.8,2.71-2.34,4.34-.54,1.63-.81,3.29-.81,4.97Z"/>
    <path class="cls-3" d="M603.94,78.27v26.29h-5.89v-37.33h4.63l21.35,26.92v-26.87h5.94v37.28h-4.89l-21.14-26.29Z"/>
    <path class="cls-3" d="M255.74,126.11c-.35-.39-.86-.8-1.53-1.24-.67-.44-1.45-.85-2.34-1.24-.89-.39-1.88-.7-2.94-.95-1.07-.25-2.17-.37-3.29-.37-2.49,0-4.32.46-5.5,1.37-1.17.91-1.76,2.17-1.76,3.79,0,.91.18,1.66.55,2.23.37.58.94,1.09,1.71,1.52.77.44,1.74.82,2.89,1.16,1.16.33,2.51.69,4.05,1.08,1.89.46,3.6.96,5.13,1.52,1.52.56,2.81,1.24,3.86,2.05,1.05.81,1.87,1.8,2.45,2.97.58,1.17.87,2.6.87,4.29,0,1.89-.36,3.52-1.08,4.89-.72,1.37-1.7,2.48-2.94,3.34-1.25.86-2.69,1.49-4.34,1.89-1.65.4-3.42.6-5.31.6-2.84,0-5.58-.43-8.23-1.29-2.65-.86-5.04-2.11-7.18-3.76l2.68-5.05c.46.46,1.11.96,1.97,1.52.86.56,1.86,1.08,3,1.55,1.14.47,2.38.88,3.71,1.21,1.33.33,2.72.5,4.15.5,2.31,0,4.1-.4,5.36-1.21,1.26-.81,1.89-2,1.89-3.58,0-.95-.24-1.74-.71-2.37-.47-.63-1.15-1.18-2.02-1.66-.88-.47-1.95-.9-3.21-1.29-1.26-.39-2.7-.79-4.31-1.21-1.86-.49-3.48-1.01-4.86-1.55-1.38-.54-2.53-1.2-3.44-1.97-.91-.77-1.6-1.67-2.08-2.71-.47-1.03-.71-2.29-.71-3.76,0-1.82.35-3.44,1.05-4.86.7-1.42,1.66-2.61,2.87-3.58,1.21-.96,2.64-1.69,4.29-2.18,1.65-.49,3.44-.74,5.36-.74,2.52,0,4.86.4,6.99,1.21,2.14.81,4.01,1.81,5.63,3l-2.68,4.84Z"/>
    <path class="cls-3" d="M284.66,149.62c1.96,0,3.59-.39,4.89-1.16,1.3-.77,2.34-1.78,3.13-3.02.79-1.24,1.35-2.66,1.68-4.26.33-1.59.5-3.23.5-4.92v-18.93h5.94v18.93c0,2.56-.3,4.97-.89,7.23-.6,2.26-1.54,4.24-2.84,5.94-1.3,1.7-2.97,3.04-5.02,4.02-2.05.98-4.51,1.47-7.39,1.47s-5.49-.52-7.54-1.55c-2.05-1.03-3.71-2.42-4.97-4.15-1.26-1.73-2.17-3.72-2.73-5.97-.56-2.24-.84-4.57-.84-6.99v-18.93h5.89v18.93c0,1.72.17,3.37.5,4.97.33,1.6.89,3.02,1.68,4.26.79,1.25,1.84,2.24,3.16,3,1.31.75,2.94,1.13,4.86,1.13Z"/>
    <path class="cls-3" d="M311.95,154.66v-37.33h15.67c1.68,0,3.23.35,4.65,1.05,1.42.7,2.64,1.62,3.65,2.76,1.02,1.14,1.81,2.44,2.39,3.89.58,1.46.87,2.94.87,4.44s-.27,3.09-.82,4.55c-.54,1.45-1.31,2.75-2.29,3.89-.98,1.14-2.17,2.05-3.55,2.73s-2.92,1.03-4.6,1.03h-10.1v12.99h-5.89ZM317.84,136.47h9.73c.84,0,1.6-.17,2.29-.53.68-.35,1.27-.84,1.76-1.47.49-.63.88-1.37,1.16-2.21.28-.84.42-1.77.42-2.79s-.16-2-.47-2.84-.75-1.57-1.31-2.18c-.56-.61-1.2-1.09-1.92-1.42-.72-.33-1.46-.5-2.23-.5h-9.41v13.93Z"/>
    <path class="cls-3" d="M348.02,154.66v-37.33h15.67c1.68,0,3.23.35,4.65,1.05,1.42.7,2.64,1.62,3.65,2.76,1.02,1.14,1.81,2.44,2.39,3.89.58,1.46.87,2.94.87,4.44s-.27,3.09-.82,4.55c-.54,1.45-1.31,2.75-2.29,3.89-.98,1.14-2.17,2.05-3.55,2.73s-2.92,1.03-4.6,1.03h-10.1v12.99h-5.89ZM353.91,136.47h9.73c.84,0,1.6-.17,2.29-.53.68-.35,1.27-.84,1.76-1.47.49-.63.88-1.37,1.16-2.21.28-.84.42-1.77.42-2.79s-.16-2-.47-2.84-.75-1.57-1.31-2.18c-.56-.61-1.2-1.09-1.92-1.42-.72-.33-1.46-.5-2.23-.5h-9.41v13.93Z"/>
    <path class="cls-3" d="M399.61,154.93c-2.66,0-5.09-.53-7.28-1.6-2.19-1.07-4.08-2.49-5.65-4.26-1.58-1.77-2.8-3.79-3.65-6.07-.86-2.28-1.29-4.61-1.29-6.99s.46-4.87,1.37-7.15c.91-2.28,2.16-4.29,3.76-6.05,1.59-1.75,3.49-3.15,5.68-4.18,2.19-1.03,4.58-1.55,7.18-1.55s5.09.55,7.28,1.66c2.19,1.1,4.07,2.55,5.63,4.34,1.56,1.79,2.77,3.81,3.63,6.07.86,2.26,1.29,4.57,1.29,6.91,0,2.49-.45,4.87-1.34,7.15-.89,2.28-2.15,4.29-3.76,6.02-1.61,1.74-3.51,3.12-5.71,4.15-2.19,1.03-4.57,1.55-7.12,1.55ZM387.72,136c0,1.75.28,3.45.84,5.1.56,1.65,1.36,3.1,2.39,4.36,1.03,1.26,2.29,2.27,3.76,3.02,1.47.75,3.12,1.13,4.94,1.13s3.57-.39,5.02-1.18,2.69-1.83,3.71-3.13,1.79-2.75,2.31-4.36c.53-1.61.79-3.26.79-4.94,0-1.79-.28-3.5-.84-5.13-.56-1.63-1.36-3.07-2.39-4.31-1.03-1.24-2.28-2.24-3.73-3-1.46-.75-3.08-1.13-4.86-1.13-1.89,0-3.58.39-5.05,1.18-1.47.79-2.72,1.81-3.73,3.08-1.02,1.26-1.8,2.71-2.34,4.34-.54,1.63-.81,3.29-.81,4.97Z"/>
    <path class="cls-3" d="M426.95,154.66v-37.33h16.25c1.68,0,3.23.35,4.65,1.05,1.42.7,2.64,1.62,3.66,2.76,1.02,1.14,1.81,2.44,2.39,3.89.58,1.46.87,2.94.87,4.44,0,1.26-.18,2.47-.53,3.63-.35,1.16-.84,2.23-1.47,3.21-.63.98-1.4,1.83-2.31,2.55-.91.72-1.91,1.25-3,1.6l8.78,14.2h-6.68l-8.1-12.99h-8.62v12.99h-5.89ZM432.84,136.47h10.31c.84,0,1.6-.18,2.29-.55s1.27-.88,1.76-1.52c.49-.65.88-1.39,1.16-2.23.28-.84.42-1.74.42-2.68s-.17-1.84-.5-2.68-.77-1.58-1.31-2.21c-.54-.63-1.17-1.13-1.89-1.5-.72-.37-1.46-.55-2.24-.55h-9.99v13.93Z"/>
    <path class="cls-3" d="M491.84,122.54h-12.41v32.13h-5.94v-32.13h-12.46v-5.21h30.81v5.21Z"/>
    <path class="cls-3" d="M545.63,117.33v37.33h-5.94v-16.46h-18.82v16.46h-5.89v-37.33h5.89v15.62h18.82v-15.62h5.94Z"/>
    <path class="cls-3" d="M572.92,149.62c1.96,0,3.59-.39,4.89-1.16,1.3-.77,2.34-1.78,3.13-3.02.79-1.24,1.35-2.66,1.68-4.26.33-1.59.5-3.23.5-4.92v-18.93h5.94v18.93c0,2.56-.3,4.97-.89,7.23-.6,2.26-1.54,4.24-2.84,5.94-1.3,1.7-2.97,3.04-5.02,4.02-2.05.98-4.51,1.47-7.39,1.47s-5.49-.52-7.54-1.55c-2.05-1.03-3.71-2.42-4.97-4.15-1.26-1.73-2.17-3.72-2.73-5.97-.56-2.24-.84-4.57-.84-6.99v-18.93h5.89v18.93c0,1.72.17,3.37.5,4.97.33,1.6.89,3.02,1.68,4.26.79,1.25,1.84,2.24,3.16,3,1.31.75,2.94,1.13,4.86,1.13Z"/>
    <path class="cls-3" d="M629.55,145.04c0,1.51-.31,2.86-.92,4.05-.61,1.19-1.44,2.2-2.47,3.02-1.03.82-2.25,1.46-3.65,1.89-1.4.44-2.89.66-4.47.66h-17.83v-37.33h19.24c1.3,0,2.47.28,3.52.84,1.05.56,1.95,1.29,2.68,2.18.74.89,1.31,1.91,1.71,3.05.4,1.14.6,2.29.6,3.44,0,1.82-.46,3.53-1.39,5.13-.93,1.6-2.25,2.78-3.97,3.55,2.14.63,3.83,1.78,5.07,3.44,1.24,1.67,1.87,3.69,1.87,6.07ZM606.1,122.43v10.99h10.83c.74,0,1.41-.14,2.02-.42.61-.28,1.16-.66,1.63-1.13.47-.47.84-1.04,1.1-1.71.26-.67.39-1.4.39-2.21,0-1.61-.46-2.94-1.37-3.97-.91-1.03-2.07-1.55-3.47-1.55h-11.15ZM623.5,143.94c0-.77-.13-1.51-.39-2.21-.26-.7-.61-1.31-1.05-1.84-.44-.53-.97-.95-1.6-1.26-.63-.32-1.31-.47-2.05-.47h-12.3v11.41h11.94c.77,0,1.49-.15,2.16-.45.67-.3,1.24-.7,1.74-1.21.49-.51.88-1.1,1.16-1.79.28-.68.42-1.41.42-2.18Z"/>
  </g>
  <g>
    <path d="M37.38,169.29h40.53c1.16,0,2.3-.03,3.42-.08h-43.95v.08Z"/>
    <path class="cls-1" d="M95.87,141.75c-.53.46-1.09.91-1.64,1.34-.15.12-.27.23-.4.33-3.38,2.49-7.55,4.26-12.39,5.3-.1.02-.2.06-.3.08l-1.59.33,3.34-12.1c1.11.73,3.02,1.59,5.74,2.56,2.14.78,4.56,1.5,7.25,2.16Z"/>
    <path class="cls-2" d="M189.76,57.58v54.39h-41.1c3.8,2.09,9,6.48,12.38,15.43h28.73v41.81h18.1V57.58h-18.1Z"/>
    <path class="cls-1" d="M98.5,83.33c.22-.55.48-1.08.75-1.59.84-1.45,1.97-2.75,3.4-3.83,3.18-2.4,7.97-3.61,14.2-3.64h.19c.74,0,1.49.03,2.24.07.8.05,1.63.12,2.45.22,1.9.21,3.78.55,5.63,1.03,3.1.8,6.02,1.78,8.71,2.91.19.09.39.15.58.24.39.17.75.34,1.13.51.58.26,1.16.53,1.71.8,1.66.82,3.18,1.66,4.48,2.51,1.01.65,1.86,1.23,2.57,1.76l7.84-14.39c-2.17-1.4-4.52-2.72-7.01-3.95-1.2-.6-2.43-1.16-3.7-1.71-1.35-.6-2.74-1.16-4.17-1.71-.26-.1-.5-.21-.74-.31-6.38-2.38-13.48-3.58-21.09-3.58-5.23,0-10.2.7-14.8,2.05-.17.05-.38.09-.56.15-.65.21-1.28.44-1.93.68-.8.29-1.61.6-2.38.94-2.96,1.28-5.68,2.86-8.09,4.76-2.82,2.22-5.15,4.96-6.98,8.11-.31.51-.6,1.04-.87,1.59-.12.24-.27.44-.38.68-.15.31-.26.65-.39.98-1.69,3.92-2.58,8.4-2.58,13.38,0,4.05.62,7.54,1.83,10.4,1.2,2.84,3.03,5.39,5.46,7.56,2.46,2.22,5.61,4.19,9.36,5.83,3.8,1.68,8.35,3.25,13.5,4.67.34-2.29.51-4.67.51-7.1,0-4.36-.55-8.43-1.56-12.22-1.04-.44-2.02-.89-2.89-1.37-2.31-1.27-4.11-2.79-5.35-4.5-1.3-1.81-1.97-4.09-1.97-6.74,0-1.23.14-2.38.38-3.46.15-.62.34-1.2.55-1.76Z"/>
    <path class="cls-1" d="M158.84,137.4c0,3.3-.38,6.33-1.09,9.08-.51,1.95-1.2,3.78-2.07,5.42-2.12,3.99-5,7.24-8.57,9.68-2.29,1.57-4.86,2.86-7.61,3.9-.56.22-1.13.44-1.71.63-.56.19-1.15.34-1.71.5-.53.15-1.06.33-1.61.46-4.82,1.16-9.94,1.75-15.23,1.75-5.99,0-11.99-.67-17.91-1.98,6.91-2.75,12.92-6.67,17.86-11.67.77-.79,1.52-1.61,2.24-2.45,7.58-.29,12.08-2.26,14.64-4.91.7-.74,1.27-1.51,1.71-2.31,1.03-1.9,1.39-3.97,1.39-5.92,0-2.1-.46-4-1.39-5.68-.31-.53-.65-1.04-1.03-1.52-.21-.26-2.58-2.63-2.81-2.87.51-3.18.91-6.91.91-11.09v-.19c-.02-2.24-.12-4.33-.29-6.28-.09-.91-.17-1.8-.29-2.63.58.21,2.94.75,3.51.96.39.15.8.29,1.2.43.17.07.34.15.51.22.84.33,1.63.67,2.41,1.03,3.01,1.37,5.68,2.96,7.9,4.77,2.89,2.34,5.13,5.18,6.69,8.43.33.68.6,1.45.86,2.22.14.43.27.84.39,1.28.72,2.55,1.09,5.46,1.09,8.73Z"/>
    <g>
      <path class="cls-2" d="M77.9,76.76c.14,0,.27.02.41.02.09-.19.17-.39.26-.6.19-.38.41-.7.6-1.08,2.14-4.14,5.01-7.68,8.61-10.52,1.64-1.3,3.44-2.45,5.32-3.47.75-.41,1.52-.8,2.31-1.18-5.29-1.44-11.1-2.17-17.5-2.17h-14.47v19.01h14.47Z"/>
      <path class="cls-2" d="M132.87,111.96c-.03-1.15-.07-2.29-.15-3.4-.03-.63-.09-1.25-.14-1.86-.05-.62-.12-1.23-.19-1.83-.55-4.55-1.52-8.91-2.96-13.1-1.71-5.05-4.09-9.61-7.08-13.69-.79-.12-15.78-.69-21.04,7.75.36.39.75.74,1.11,1.15,2.63,3.03,4.67,6.65,6.12,10.78.1.29.22.56.31.86.14.41.24.87.38,1.3.19.67.39,1.33.56,2.04.84,3.56,1.27,7.37,1.27,11.43,0,2.62-.19,5.13-.55,7.58-.09.56-.22,1.11-.33,1.68s-.21,1.15-.33,1.69c-.29,1.25-.62,2.46-1.01,3.66-1.47,4.5-3.59,8.4-6.36,11.7-1.51,1.8-3.25,3.37-5.17,4.74-.55.39-1.11.77-1.69,1.13-.58.38-1.2.7-1.83,1.04-.55.29-1.09.6-1.68.87-4.14,1.88-8.88,2.82-14.22,2.82h-18.85v-69.39h-21.68v88.32h43.95c3.78-.17,7.39-.63,10.81-1.37,1.09-.24,2.16-.5,3.22-.79,1.01-.29,2-.6,2.99-.94.75-.26,1.52-.53,2.26-.82,6.76-2.67,12.54-6.45,17.36-11.31.39-.39.75-.8,1.13-1.21.51-.56,1.03-1.13,1.51-1.73.48-.56.94-1.15,1.4-1.74,2.89-3.83,5.23-8.13,7.03-12.92.58-1.56,1.09-3.16,1.54-4.79.15-.58.31-1.15.44-1.73.14-.58.27-1.15.41-1.73.82-3.85,1.27-7.92,1.4-12.22.02-.84.05-1.68.05-2.55,0-.46-.02-.94-.02-1.4Z"/>
    </g>
    <rect class="cls-1" x="38.45" y="58.67" width="18.51" height="15.9"/>
  </g>
</svg>